<svg width="1280" height="800" viewBox="0 0 1280 800" xmlns="http://www.w3.org/2000/svg" font-family="Segoe UI, Arial, sans-serif">
  <defs>
    <linearGradient id="bg" x1="0" y1="0" x2="1" y2="1"><stop offset="0" stop-color="#0d1326"/><stop offset="1" stop-color="#0b0d12"/></linearGradient>
    <linearGradient id="acc" x1="0" y1="0" x2="1" y2="0"><stop offset="0" stop-color="#6e8bff"/><stop offset="1" stop-color="#9b6bff"/></linearGradient>
    <linearGradient id="card" x1="0" y1="0" x2="0" y2="1"><stop offset="0" stop-color="#1a2236"/><stop offset="1" stop-color="#14171f"/></linearGradient>
  </defs>
  <rect width="1280" height="800" fill="url(#bg)"/>

  <!-- Sidebar -->
  <rect x="0" y="0" width="256" height="800" fill="#14171f"/>
  <rect x="255" y="0" width="1.5" height="800" fill="#262c39"/>
  <g transform="translate(20,22)">
    <rect width="26" height="26" rx="7" fill="#1c2747"/>
    <circle cx="13" cy="13" r="9" fill="none" stroke="#6e8bff" stroke-width="1.6" opacity="0.8"/>
    <circle cx="13" cy="13" r="5" fill="none" stroke="#6e8bff" stroke-width="1.6" opacity="0.8"/>
    <line x1="13" y1="13" x2="13" y2="4" stroke="#a8c4ff" stroke-width="1.6"/>
    <circle cx="13" cy="13" r="2.4" fill="#6e8bff"/><circle cx="17.5" cy="8.5" r="2" fill="#3ddc84"/>
  </g>
  <text x="56" y="40" font-size="20" font-weight="700" fill="url(#acc)">Vigie</text>
  <text x="20" y="78" font-size="11" letter-spacing="1" fill="#98a1b3">VUE</text>
  <rect x="12" y="86" width="232" height="34" rx="9" fill="#232b46"/>
  <rect x="12" y="90" width="3" height="26" rx="2" fill="url(#acc)"/>
  <text x="26" y="108" font-size="13" fill="#eef1f6">📊  Tableau de bord</text>
  <text x="20" y="146" font-size="11" letter-spacing="1" fill="#98a1b3">FLUX</text>
  <text x="26" y="176" font-size="13" fill="#98a1b3">📰  Tout</text>
  <text x="26" y="206" font-size="13" fill="#98a1b3">●  Non lus</text>
  <text x="26" y="236" font-size="13" fill="#98a1b3">★  Favoris</text>
  <rect x="0" y="724" width="256" height="1.5" fill="#262c39"/>
  <text x="26" y="748" font-size="13" fill="#98a1b3">⚙️ Gérer les sources</text>
  <text x="26" y="776" font-size="13" fill="#98a1b3">🔧 Réglages</text>

  <!-- Toolbar -->
  <rect x="256" y="0" width="1024" height="58" fill="#14171f"/>
  <rect x="256" y="57" width="1024" height="1.5" fill="#262c39"/>
  <rect x="276" y="14" width="320" height="30" rx="9" fill="#1c212c" stroke="#262c39"/>
  <text x="292" y="33" font-size="12" fill="#98a1b3">Rechercher…</text>
  <rect x="1162" y="14" width="100" height="30" rx="9" fill="url(#acc)"/><text x="1212" y="33" font-size="12" fill="#fff" text-anchor="middle">↻ Actualiser</text>

  <!-- Stat cards -->
  <g>
    <rect x="288" y="86" width="220" height="96" rx="12" fill="url(#card)" stroke="#262c39"/><rect x="288" y="86" width="220" height="3" fill="url(#acc)"/>
    <text x="398" y="140" font-size="34" font-weight="700" fill="#eef1f6" text-anchor="middle">214</text>
    <text x="398" y="164" font-size="11" letter-spacing="1" fill="#98a1b3" text-anchor="middle">ARTICLES</text>
  </g>
  <g>
    <rect x="524" y="86" width="220" height="96" rx="12" fill="url(#card)" stroke="#262c39"/><rect x="524" y="86" width="220" height="3" fill="url(#acc)"/>
    <text x="634" y="140" font-size="34" font-weight="700" fill="#6e8bff" text-anchor="middle">38</text>
    <text x="634" y="164" font-size="11" letter-spacing="1" fill="#98a1b3" text-anchor="middle">NON LUS</text>
  </g>
  <g>
    <rect x="760" y="86" width="220" height="96" rx="12" fill="url(#card)" stroke="#262c39"/><rect x="760" y="86" width="220" height="3" fill="url(#acc)"/>
    <text x="870" y="140" font-size="34" font-weight="700" fill="#f5c518" text-anchor="middle">12</text>
    <text x="870" y="164" font-size="11" letter-spacing="1" fill="#98a1b3" text-anchor="middle">FAVORIS</text>
  </g>
  <g>
    <rect x="996" y="86" width="256" height="96" rx="12" fill="url(#card)" stroke="#262c39"/><rect x="996" y="86" width="256" height="3" fill="url(#acc)"/>
    <text x="1124" y="140" font-size="34" font-weight="700" fill="#3ddc84" text-anchor="middle">76</text>
    <text x="1124" y="164" font-size="11" letter-spacing="1" fill="#98a1b3" text-anchor="middle">RÉSUMÉS IA</text>
  </g>

  <!-- Panel: activité 14 jours -->
  <rect x="288" y="202" width="478" height="270" rx="12" fill="#14171f" stroke="#262c39"/>
  <text x="308" y="232" font-size="13" letter-spacing="1" fill="#98a1b3">ACTIVITÉ SUR 14 JOURS</text>
  <g fill="#6e8bff">
    <rect x="312" y="380" width="26" height="60" rx="4"/>
    <rect x="344" y="350" width="26" height="90" rx="4"/>
    <rect x="376" y="300" width="26" height="140" rx="4"/>
    <rect x="408" y="330" width="26" height="110" rx="4"/>
    <rect x="440" y="270" width="26" height="170" rx="4"/>
    <rect x="472" y="360" width="26" height="80" rx="4"/>
    <rect x="504" y="320" width="26" height="120" rx="4"/>
    <rect x="536" y="290" width="26" height="150" rx="4"/>
    <rect x="568" y="340" width="26" height="100" rx="4"/>
    <rect x="600" y="250" width="26" height="190" rx="4"/>
    <rect x="632" y="300" width="26" height="140" rx="4"/>
    <rect x="664" y="360" width="26" height="80" rx="4"/>
    <rect x="696" y="330" width="26" height="110" rx="4"/>
    <rect x="728" y="280" width="26" height="160" rx="4"/>
  </g>

  <!-- Panel: par type -->
  <rect x="782" y="202" width="470" height="270" rx="12" fill="#14171f" stroke="#262c39"/>
  <text x="802" y="232" font-size="13" letter-spacing="1" fill="#98a1b3">PAR TYPE DE SOURCE</text>
  <g font-size="12" fill="#cfd6e6">
    <text x="802" y="270">rss</text><rect x="900" y="260" width="300" height="10" rx="5" fill="#1c212c"/><rect x="900" y="260" width="300" height="10" rx="5" fill="#6e8bff"/><text x="1212" y="270" fill="#98a1b3">132</text>
    <text x="802" y="300">hackernews</text><rect x="900" y="290" width="300" height="10" rx="5" fill="#1c212c"/><rect x="900" y="290" width="150" height="10" rx="5" fill="#ff7733"/><text x="1212" y="300" fill="#98a1b3">52</text>
    <text x="802" y="330">reddit</text><rect x="900" y="320" width="300" height="10" rx="5" fill="#1c212c"/><rect x="900" y="320" width="70" height="10" rx="5" fill="#ff4500"/><text x="1212" y="330" fill="#98a1b3">22</text>
    <text x="802" y="360">github</text><rect x="900" y="350" width="300" height="10" rx="5" fill="#1c212c"/><rect x="900" y="350" width="36" height="10" rx="5" fill="#b18cff"/><text x="1212" y="360" fill="#98a1b3">8</text>
  </g>
  <text x="802" y="404" font-size="13" letter-spacing="1" fill="#98a1b3">TAGS FRÉQUENTS</text>
  <g font-size="11" fill="#eef1f6">
    <rect x="802" y="418" width="64" height="22" rx="11" fill="#232b46" stroke="#3a4a86"/><text x="812" y="433">ia 41</text>
    <rect x="874" y="418" width="78" height="22" rx="11" fill="#232b46" stroke="#3a4a86"/><text x="884" y="433">sécurité 29</text>
    <rect x="960" y="418" width="64" height="22" rx="11" fill="#232b46" stroke="#3a4a86"/><text x="970" y="433">web 24</text>
    <rect x="1032" y="418" width="78" height="22" rx="11" fill="#232b46" stroke="#3a4a86"/><text x="1042" y="433">mobile 18</text>
  </g>

  <!-- Panel: par catégorie -->
  <rect x="288" y="492" width="964" height="284" rx="12" fill="#14171f" stroke="#262c39"/>
  <text x="308" y="522" font-size="13" letter-spacing="1" fill="#98a1b3">PAR CATÉGORIE</text>
  <g font-size="12" fill="#cfd6e6">
    <text x="308" y="560">Tech</text><rect x="420" y="550" width="800" height="10" rx="5" fill="#1c212c"/><rect x="420" y="550" width="800" height="10" rx="5" fill="#6e8bff"/>
    <text x="308" y="596">Dev</text><rect x="420" y="586" width="800" height="10" rx="5" fill="#1c212c"/><rect x="420" y="586" width="520" height="10" rx="5" fill="#6e8bff"/>
    <text x="308" y="632">Mobile</text><rect x="420" y="622" width="800" height="10" rx="5" fill="#1c212c"/><rect x="420" y="622" width="300" height="10" rx="5" fill="#6e8bff"/>
    <text x="308" y="668">Général</text><rect x="420" y="658" width="800" height="10" rx="5" fill="#1c212c"/><rect x="420" y="658" width="180" height="10" rx="5" fill="#6e8bff"/>
    <text x="308" y="704">Sécurité</text><rect x="420" y="694" width="800" height="10" rx="5" fill="#1c212c"/><rect x="420" y="694" width="120" height="10" rx="5" fill="#6e8bff"/>
  </g>
</svg>
