<svg width="512" height="512" viewBox="0 0 512 512" xmlns="http://www.w3.org/2000/svg">
  <defs>
    <linearGradient id="bg" x1="0" y1="0" x2="1" y2="1">
      <stop offset="0" stop-color="#1c2747"/>
      <stop offset="1" stop-color="#0c1124"/>
    </linearGradient>
    <radialGradient id="glow" cx="50%" cy="50%" r="55%">
      <stop offset="0" stop-color="#5b8cff" stop-opacity="0.40"/>
      <stop offset="1" stop-color="#5b8cff" stop-opacity="0"/>
    </radialGradient>
    <linearGradient id="ring" x1="0" y1="0" x2="1" y2="1">
      <stop offset="0" stop-color="#8aa9ff"/>
      <stop offset="1" stop-color="#3f6ae0"/>
    </linearGradient>
    <linearGradient id="sweep" x1="0" y1="0" x2="1" y2="0">
      <stop offset="0" stop-color="#5b8cff" stop-opacity="0"/>
      <stop offset="1" stop-color="#6f9bff" stop-opacity="0.85"/>
    </linearGradient>
  </defs>

  <!-- fond -->
  <rect width="512" height="512" rx="116" fill="url(#bg)"/>
  <circle cx="256" cy="256" r="200" fill="url(#glow)"/>

  <!-- anneaux radar -->
  <g fill="none" stroke="url(#ring)" stroke-width="11" opacity="0.55">
    <circle cx="256" cy="256" r="172"/>
    <circle cx="256" cy="256" r="118"/>
    <circle cx="256" cy="256" r="64"/>
  </g>

  <!-- réticule -->
  <g stroke="#3f6ae0" stroke-width="6" opacity="0.30">
    <line x1="256" y1="72" x2="256" y2="440"/>
    <line x1="72" y1="256" x2="440" y2="256"/>
  </g>

  <!-- balayage radar -->
  <path d="M256 256 L256 84 A172 172 0 0 1 405 170 Z" fill="url(#sweep)" opacity="0.6"/>
  <line x1="256" y1="256" x2="256" y2="84" stroke="#a8c4ff" stroke-width="9" stroke-linecap="round"/>

  <!-- pupille / centre -->
  <circle cx="256" cy="256" r="36" fill="url(#ring)"/>
  <circle cx="256" cy="256" r="36" fill="none" stroke="#c9daff" stroke-width="5"/>
  <circle cx="256" cy="256" r="13" fill="#0c1124"/>

  <!-- blip détecté -->
  <circle cx="344" cy="186" r="15" fill="#3ddc84"/>
  <circle cx="344" cy="186" r="26" fill="none" stroke="#3ddc84" stroke-width="4" opacity="0.45"/>
</svg>
